<mxfile host="app.diagrams.net" agent="Mozilla/5.0 (Windows NT 10.0; Win64; x64) AppleWebKit/537.36 (KHTML, like Gecko) Chrome/135.0.0.0 Safari/537.36" version="26.1.0">
  <diagram name="第 1 页" id="25VpfzDFPKukLDIg8Hol">
    <mxGraphModel dx="1434" dy="738" grid="1" gridSize="10" guides="1" tooltips="1" connect="1" arrows="1" fold="1" page="1" pageScale="1" pageWidth="827" pageHeight="1169" math="0" shadow="0">
      <root>
        <mxCell id="0" />
        <mxCell id="1" parent="0" />
        <mxCell id="CieI-H5wSeYiXBRYfO-f-23" value="" style="whiteSpace=wrap;html=1;aspect=fixed;" vertex="1" parent="1">
          <mxGeometry x="270" y="70" width="420" height="420" as="geometry" />
        </mxCell>
        <mxCell id="CieI-H5wSeYiXBRYfO-f-6" value="" style="edgeStyle=orthogonalEdgeStyle;rounded=0;orthogonalLoop=1;jettySize=auto;html=1;" edge="1" parent="1" source="CieI-H5wSeYiXBRYfO-f-2" target="CieI-H5wSeYiXBRYfO-f-5">
          <mxGeometry relative="1" as="geometry" />
        </mxCell>
        <mxCell id="CieI-H5wSeYiXBRYfO-f-7" value="Lpui" style="edgeLabel;html=1;align=center;verticalAlign=middle;resizable=0;points=[];" vertex="1" connectable="0" parent="CieI-H5wSeYiXBRYfO-f-6">
          <mxGeometry y="1" relative="1" as="geometry">
            <mxPoint as="offset" />
          </mxGeometry>
        </mxCell>
        <mxCell id="CieI-H5wSeYiXBRYfO-f-2" value="CRA" style="rounded=1;whiteSpace=wrap;html=1;" vertex="1" parent="1">
          <mxGeometry x="130" y="130" width="120" height="60" as="geometry" />
        </mxCell>
        <mxCell id="CieI-H5wSeYiXBRYfO-f-9" value="" style="edgeStyle=orthogonalEdgeStyle;rounded=0;orthogonalLoop=1;jettySize=auto;html=1;" edge="1" parent="1" source="CieI-H5wSeYiXBRYfO-f-5" target="CieI-H5wSeYiXBRYfO-f-8">
          <mxGeometry relative="1" as="geometry" />
        </mxCell>
        <mxCell id="CieI-H5wSeYiXBRYfO-f-5" value="Search Connect QueryBuilder Config" style="rounded=1;whiteSpace=wrap;html=1;" vertex="1" parent="1">
          <mxGeometry x="330" y="130" width="120" height="60" as="geometry" />
        </mxCell>
        <mxCell id="CieI-H5wSeYiXBRYfO-f-11" value="" style="edgeStyle=orthogonalEdgeStyle;rounded=0;orthogonalLoop=1;jettySize=auto;html=1;" edge="1" parent="1" source="CieI-H5wSeYiXBRYfO-f-8" target="CieI-H5wSeYiXBRYfO-f-10">
          <mxGeometry relative="1" as="geometry" />
        </mxCell>
        <mxCell id="CieI-H5wSeYiXBRYfO-f-12" value="Yes" style="edgeLabel;html=1;align=center;verticalAlign=middle;resizable=0;points=[];" vertex="1" connectable="0" parent="CieI-H5wSeYiXBRYfO-f-11">
          <mxGeometry x="-0.2" y="-1" relative="1" as="geometry">
            <mxPoint as="offset" />
          </mxGeometry>
        </mxCell>
        <mxCell id="CieI-H5wSeYiXBRYfO-f-14" value="" style="edgeStyle=orthogonalEdgeStyle;rounded=0;orthogonalLoop=1;jettySize=auto;html=1;" edge="1" parent="1" source="CieI-H5wSeYiXBRYfO-f-8" target="CieI-H5wSeYiXBRYfO-f-13">
          <mxGeometry relative="1" as="geometry" />
        </mxCell>
        <mxCell id="CieI-H5wSeYiXBRYfO-f-15" value="No" style="edgeLabel;html=1;align=center;verticalAlign=middle;resizable=0;points=[];" vertex="1" connectable="0" parent="CieI-H5wSeYiXBRYfO-f-14">
          <mxGeometry x="-0.1556" y="-4" relative="1" as="geometry">
            <mxPoint as="offset" />
          </mxGeometry>
        </mxCell>
        <mxCell id="CieI-H5wSeYiXBRYfO-f-8" value="match Query Category&lt;br&gt;Fund/Profile/..." style="shape=parallelogram;perimeter=parallelogramPerimeter;whiteSpace=wrap;html=1;fixedSize=1;rounded=1;" vertex="1" parent="1">
          <mxGeometry x="530" y="130" width="120" height="60" as="geometry" />
        </mxCell>
        <mxCell id="CieI-H5wSeYiXBRYfO-f-17" value="" style="edgeStyle=orthogonalEdgeStyle;rounded=0;orthogonalLoop=1;jettySize=auto;html=1;" edge="1" parent="1" source="CieI-H5wSeYiXBRYfO-f-10" target="CieI-H5wSeYiXBRYfO-f-16">
          <mxGeometry relative="1" as="geometry" />
        </mxCell>
        <mxCell id="CieI-H5wSeYiXBRYfO-f-10" value="Execute Query With LPUI Filter" style="whiteSpace=wrap;html=1;rounded=1;" vertex="1" parent="1">
          <mxGeometry x="530" y="270" width="120" height="60" as="geometry" />
        </mxCell>
        <mxCell id="CieI-H5wSeYiXBRYfO-f-13" value="End" style="rounded=1;whiteSpace=wrap;html=1;" vertex="1" parent="1">
          <mxGeometry x="730" y="130" width="120" height="60" as="geometry" />
        </mxCell>
        <mxCell id="CieI-H5wSeYiXBRYfO-f-19" value="" style="edgeStyle=orthogonalEdgeStyle;rounded=0;orthogonalLoop=1;jettySize=auto;html=1;" edge="1" parent="1" source="CieI-H5wSeYiXBRYfO-f-16" target="CieI-H5wSeYiXBRYfO-f-18">
          <mxGeometry relative="1" as="geometry" />
        </mxCell>
        <mxCell id="CieI-H5wSeYiXBRYfO-f-16" value="Return results （with field info）to CRA" style="whiteSpace=wrap;html=1;rounded=1;" vertex="1" parent="1">
          <mxGeometry x="530" y="410" width="120" height="60" as="geometry" />
        </mxCell>
        <mxCell id="CieI-H5wSeYiXBRYfO-f-21" value="" style="edgeStyle=orthogonalEdgeStyle;rounded=0;orthogonalLoop=1;jettySize=auto;html=1;" edge="1" parent="1" source="CieI-H5wSeYiXBRYfO-f-18" target="CieI-H5wSeYiXBRYfO-f-20">
          <mxGeometry relative="1" as="geometry" />
        </mxCell>
        <mxCell id="CieI-H5wSeYiXBRYfO-f-18" value="CRA Check FieldMapping Config&lt;div&gt;&lt;br&gt;&lt;/div&gt;" style="whiteSpace=wrap;html=1;rounded=1;" vertex="1" parent="1">
          <mxGeometry x="530" y="510" width="120" height="60" as="geometry" />
        </mxCell>
        <mxCell id="CieI-H5wSeYiXBRYfO-f-22" style="edgeStyle=orthogonalEdgeStyle;rounded=0;orthogonalLoop=1;jettySize=auto;html=1;entryX=0.5;entryY=1;entryDx=0;entryDy=0;" edge="1" parent="1" source="CieI-H5wSeYiXBRYfO-f-20" target="CieI-H5wSeYiXBRYfO-f-13">
          <mxGeometry relative="1" as="geometry" />
        </mxCell>
        <mxCell id="CieI-H5wSeYiXBRYfO-f-20" value="sync data with converted field&lt;div&gt;&lt;br&gt;&lt;/div&gt;" style="whiteSpace=wrap;html=1;rounded=1;" vertex="1" parent="1">
          <mxGeometry x="530" y="600" width="120" height="60" as="geometry" />
        </mxCell>
        <mxCell id="CieI-H5wSeYiXBRYfO-f-24" value="API in Connect with installed QueryBuild SDK" style="text;html=1;align=center;verticalAlign=middle;whiteSpace=wrap;rounded=0;" vertex="1" parent="1">
          <mxGeometry x="300" y="230" width="180" height="30" as="geometry" />
        </mxCell>
      </root>
    </mxGraphModel>
  </diagram>
</mxfile>
